<?xml version="1.0" encoding="utf-8"?>
<svg viewBox="0 0 500 500" xmlns="http://www.w3.org/2000/svg" xmlns:xlink="http://www.w3.org/1999/xlink" xmlns:bx="https://boxy-svg.com">
  <defs>
    <linearGradient id="gradient-3-1" gradientUnits="userSpaceOnUse" x1="352.118" y1="275.454" x2="352.118" y2="497.196" xlink:href="#gradient-3"/>
    <linearGradient id="gradient-3" bx:pinned="true">
      <stop offset="0.351" style="stop-color: rgb(236, 98, 39);"/>
      <stop offset="0.747" style="stop-color: rgb(89, 0, 179);"/>
    </linearGradient>
    <linearGradient id="gradient-3-0" gradientUnits="userSpaceOnUse" x1="97.654" y1="238.786" x2="97.654" y2="417.168" xlink:href="#gradient-3"/>
    <linearGradient id="gradient-3-2" gradientUnits="userSpaceOnUse" x1="249.71" y1="447.81" x2="249.71" y2="453.271" xlink:href="#gradient-3"/>
    <linearGradient id="gradient-3-3" gradientUnits="userSpaceOnUse" x1="251.144" y1="496.955" x2="251.144" y2="498.094" xlink:href="#gradient-3"/>
  </defs>
  <path d="M 483.413 497.434 L 255.874 497.434 C 249.684 497.434 244.649 490.186 244.649 481.276 L 244.649 261.1 C 244.596 257.674 246.029 254.502 248.355 252.899 L 334.34 185.168 C 343.894 178.999 355.114 178.984 364.677 185.129 L 490.908 252.893 C 493.246 254.49 494.691 257.671 494.639 261.106 L 494.639 481.276 C 494.639 490.186 489.601 497.434 483.413 497.434 Z" fill="#f2f2f2" style="" transform="matrix(1, 0, 0, 1, 0, 1.4210854715202004e-14)"/>
  <path d="M 449.814 497.196 L 254.42 497.196 C 249.084 497.196 244.743 492.079 244.743 485.79 L 244.743 331.885 C 244.793 329.262 246.072 326.944 247.968 326.042 L 338.946 278.686 C 347.306 274.383 356.611 274.377 364.976 278.67 L 456.262 326.044 C 458.161 326.944 459.44 329.264 459.494 331.89 L 459.494 485.79 C 459.494 492.079 455.152 497.196 449.814 497.196 Z" style="fill: url('#gradient-3-1');" transform="matrix(1, 0, 0, 1, 0, 1.4210854715202004e-14)"/>
  <circle cx="79.998" cy="221.923" r="50.532" style="fill: rgb(244, 170, 83);" transform="matrix(0.6607820391654968, 0, 0, 0.7133839726448059, 85.65172576904297, 137.06979370117188)"/>
  <circle cx="79.998" cy="221.923" r="50.532" style="fill: rgb(244, 224, 83);" transform="matrix(0.6248000264167786, 0, 0, 0.7029939293861389, 84.95732116699219, 140.5772705078125)"/>
  <ellipse cx="149.852" cy="374.893" rx="36.262" ry="59.06" fill="#f2f2f2" style="" transform="matrix(1, 0, 0, 1, 0, 1.4210854715202004e-14)"/>
  <polygon points="149.951 363.017 150.05 363.017 151.844 496.791 148.059 496.791 149.951 363.017" fill="#ccc" style="" transform="matrix(1, 0, 0, 1, 0, 1.4210854715202004e-14)"/>
  <path d="M 156.136 451.579 C 156.367 452.149 156.199 452.855 155.761 453.154 L 150.56 456.717 L 149.725 454.652 L 154.924 451.091 C 155.364 450.79 155.906 451.008 156.136 451.579 Z" fill="#ccc" style="" transform="matrix(1, 0, 0, 1, 0, 1.4210854715202004e-14)"/>
  <ellipse cx="45.601" cy="374.893" rx="36.262" ry="59.06" fill="#f2f2f2" style="" transform="matrix(1, 0, 0, 1, 0, 1.4210854715202004e-14)"/>
  <path d="M 51.884 453.791 C 51.655 453.219 51.111 453.002 50.673 453.303 L 47.043 455.788 L 45.799 363.017 L 45.699 363.017 L 43.807 496.791 L 47.592 496.791 L 47.078 458.402 L 51.509 455.367 C 51.947 455.066 52.115 454.361 51.884 453.791 Z" fill="#ccc" style="" transform="matrix(1, 0, 0, 1, 0, 1.4210854715202004e-14)"/>
  <path d="M 97.599 238.786 C 122.976 238.786 143.602 301.003 143.602 342.333 C 143.602 383.663 123.03 417.168 97.654 417.168 C 72.278 417.168 51.706 383.663 51.706 342.333 C 51.706 301.003 72.224 238.786 97.599 238.786 Z" style="fill: url('#gradient-3-0');" transform="matrix(1, 0, 0, 1, 0, 1.4210854715202004e-14)"/>
  <path d="M 105.617 442.305 C 105.325 441.582 104.638 441.305 104.082 441.685 L 99.482 444.837 L 97.906 327.285 L 97.78 327.285 L 95.381 496.791 L 100.178 496.791 L 99.526 448.148 L 105.142 444.302 C 105.697 443.921 105.91 443.027 105.617 442.305 Z" fill="#3f3d56" style="" transform="matrix(1, 0, 0, 1, 0, 1.4210854715202004e-14)"/>
  <path d="M 306.495 391.429 L 306.495 375.513 C 306.495 371.189 303.802 367.685 300.48 367.685 L 269.611 367.685 C 266.287 367.685 263.593 371.189 263.593 375.513 L 263.593 391.429 L 306.495 391.429 Z" fill="#fff" style="" transform="matrix(1, 0, 0, 1, 0, 1.4210854715202004e-14)"/>
  <path d="M 263.593 393.929 L 263.593 418.596 C 263.593 422.919 266.287 426.423 269.611 426.423 L 300.48 426.423 C 303.802 426.423 306.495 422.919 306.495 418.596 L 306.495 393.929 L 263.593 393.929 Z" fill="#fff" style="" transform="matrix(1, 0, 0, 1, 0, 1.4210854715202004e-14)"/>
  <path d="M 452.063 347.739 L 359.383 303.532 C 353.75 300.845 347.567 300.845 341.933 303.532 L 249.254 347.739 C 240.818 351.762 231.879 343.638 231.879 331.947 C 231.879 324.892 235.265 318.585 240.357 316.156 L 341.933 267.705 C 347.567 265.019 353.75 265.019 359.383 267.705 L 460.959 316.156 C 466.051 318.585 469.437 324.892 469.437 331.947 C 469.437 343.638 460.498 351.762 452.063 347.739 Z" fill="#3f3d56" style="" transform="matrix(1, 0, 0, 1, 0, 1.4210854715202004e-14)"/>
  <path d="M 365.623 497.932 L 340.853 497.932 C 335.379 497.924 330.944 492.153 330.937 485.031 L 330.937 406.975 C 330.944 399.853 335.379 394.08 340.853 394.073 L 365.623 394.073 C 371.098 394.08 375.532 399.853 375.538 406.975 L 375.538 485.031 C 375.532 492.153 371.098 497.924 365.623 497.932 Z M 340.853 396.285 C 336.318 396.292 332.643 401.073 332.638 406.975 L 332.638 485.031 C 332.643 490.932 336.318 495.714 340.853 495.72 L 365.623 495.72 C 370.158 495.714 373.833 490.932 373.839 485.031 L 373.839 406.975 C 373.833 401.073 370.158 396.292 365.623 396.285 L 340.853 396.285 Z" style="fill: rgb(204, 204, 204);" transform="matrix(1, 0, 0, 1, 0, 1.4210854715202004e-14)"/>
  <path d="M 368.025 228.061 C 366.797 210.177 351.15 200.732 339.861 211.059 C 335.547 215.006 332.788 221.225 332.319 228.061 L 368.025 228.061 Z" fill="#fff" style="" transform="matrix(1, 0, 0, 1, 0, 1.4210854715202004e-14)"/>
  <path d="M 332.251 230.56 C 332.494 248.511 347.578 259.388 359.406 250.139 C 364.7 245.999 367.984 238.599 368.093 230.56 L 332.251 230.56 Z" fill="#fff" style="" transform="matrix(1, 0, 0, 1, 0, 1.4210854715202004e-14)"/>
  <path d="M 365.22 256.34 L 335.125 256.34 C 330.963 256.34 328.362 250.479 330.442 245.79 C 331.408 243.614 333.194 242.272 335.125 242.272 L 365.22 242.272 C 369.381 242.272 371.982 248.135 369.9 252.823 C 368.936 255 367.151 256.34 365.22 256.34 Z" fill="#ccc" style="" transform="matrix(1, 0, 0, 1, 0, 1.4210854715202004e-14)"/>
  <path d="M 263.914 418.459 C 260.19 418.459 257.86 423.707 259.724 427.906 C 260.588 429.853 262.186 431.053 263.914 431.053 L 306.175 431.053 C 309.9 431.053 312.228 425.807 310.366 421.609 C 309.501 419.661 307.903 418.459 306.175 418.459 L 263.914 418.459 Z" fill="#ccc" style="" transform="matrix(1, 0, 0, 1, 0, 1.4210854715202004e-14)"/>
  <path d="M 395.179 393.929 L 395.179 418.596 C 395.179 422.919 397.872 426.423 401.195 426.423 L 432.064 426.423 C 435.386 426.423 438.08 422.919 438.08 418.596 L 438.08 393.929 L 395.179 393.929 Z" fill="#fff" style="" transform="matrix(1, 0, 0, 1, 0, 1.4210854715202004e-14)"/>
  <path d="M 438.08 391.429 L 438.08 375.513 C 438.08 371.189 435.386 367.685 432.064 367.685 L 401.195 367.685 C 397.872 367.685 395.179 371.189 395.179 375.513 L 395.179 391.429 L 438.08 391.429 Z" fill="#fff" style="" transform="matrix(1, 0, 0, 1, 0, 1.4210854715202004e-14)"/>
  <circle cx="486.086" cy="419.419" r="6.216" style="fill: rgb(204, 204, 204);" transform="matrix(0.5665850043296814, 0, 0, 0.7372369766235352, 92.55614471435547, 134.70835876464844)"/>
  <polygon points="249.669 446.869 235.797 418.792 236.44 418.255 249.603 444.898 260.329 418.294 261.004 418.755 249.669 446.869" fill="#3f3d56" style="" transform="matrix(1, 0, 0, 1, 0, 1.4210854715202004e-14)"/>
  <path d="M 260.965 409.588 L 227.968 409.588 L 227.968 408.844 C 227.968 403.772 224.806 399.66 220.909 399.66 C 217.01 399.66 213.852 403.772 213.852 408.844 L 213.852 409.588 L 210.609 409.588 C 205.175 409.588 201.78 417.241 204.497 423.364 C 205.757 426.205 208.087 427.955 210.609 427.955 L 213.852 427.955 L 213.852 497.355 C 227.914 496.988 213.748 497.725 227.968 497.355 L 227.968 427.955 L 260.965 427.955 C 266.398 427.955 269.795 420.302 267.079 414.181 C 265.817 411.34 263.488 409.588 260.965 409.588 Z" fill="#3f3d56" style="" transform="matrix(1, 0, 0, 1, 0, 1.4210854715202004e-14)"/>
  <circle cx="226.201" cy="384.971" r="4.713" fill="#fff" style="" transform="matrix(0.5665850043296814, 0, 0, 0.7372369766235352, 92.55614471435547, 134.70835876464844)"/>
  <path d="M 265.159 464.561 L 234.645 464.561 C 231.643 464.557 229.213 461.393 229.208 457.487 L 229.208 444.588 C 229.213 440.683 231.643 437.519 234.645 437.515 L 265.159 437.515 C 268.161 437.519 270.593 440.683 270.597 444.588 L 270.597 457.487 C 270.593 461.393 268.161 464.557 265.159 464.561 Z" fill="#ccc" style="" transform="matrix(1, 0, 0, 1, 0, 1.4210854715202004e-14)"/>
  <rect x="237.884" y="447.81" width="23.652" height="5.461" rx="3.703" style="fill: url('#gradient-3-2');" transform="matrix(1, 0, 0, 1, 0, 1.4210854715202004e-14)"/>
  <path d="M 533.199 498.094 L -30.91 498.094 C -31.247 498.094 -31.458 497.619 -31.289 497.24 C -31.212 497.063 -31.067 496.955 -30.91 496.955 L 533.199 496.955 C 533.536 496.955 533.746 497.429 533.576 497.81 C 533.5 497.986 533.355 498.094 533.199 498.094 Z" style="fill: url('#gradient-3-3');" transform="matrix(1, 0, 0, 1, 0, 1.4210854715202004e-14)"/>
  <path d="M 437.439 431.791 L 395.179 431.791 C 391.017 431.791 388.416 425.929 390.497 421.239 C 391.464 419.063 393.248 417.722 395.179 417.722 L 437.439 417.722 C 441.601 417.722 444.202 423.585 442.121 428.274 C 441.155 430.451 439.371 431.791 437.439 431.791 Z" fill="#ccc" style="" transform="matrix(1, 0, 0, 1, 0, 1.4210854715202004e-14)"/>
  <path d="M 494.209 268.445 C 494.209 268.445 483.96 267.499 463.047 266.233 C 438.117 209.466 357.094 195.783 357.094 154.94 L 456.68 154.94 C 477.429 154.94 494.248 176.826 494.248 203.825 L 494.209 268.445 Z" fill="#ccc" style="" transform="matrix(1, 0, 0, 1, 0, 1.4210854715202004e-14)"/>
  <path d="M 407.836 169.866 C 407.367 169.866 406.986 170.359 406.986 170.971 L 406.986 207.892 C 406.986 208.502 407.367 208.996 407.836 208.997 L 425.511 208.997 C 425.98 208.996 426.36 208.502 426.361 207.892 L 426.361 170.971 C 426.36 170.359 425.98 169.866 425.511 169.866 L 407.836 169.866 Z" fill="#f2f2f2" style="" transform="matrix(1, 0, 0, 1, 0, 1.4210854715202004e-14)"/>
  <path d="M 456.926 265.467 L 364.247 192.782 C 358.613 190.095 352.43 190.095 346.797 192.782 L 254.118 265.467 C 245.683 269.491 236.744 261.366 236.744 249.676 C 236.744 242.621 240.129 236.314 245.22 233.886 L 346.797 156.954 C 352.43 154.269 358.613 154.269 364.247 156.954 L 465.824 233.886 C 470.914 236.314 474.3 242.621 474.3 249.676 C 474.3 261.366 465.361 269.491 456.926 265.467 Z" fill="#ccc" style="" transform="matrix(1, 0, 0, 1, 0, 1.4210854715202004e-14)"/>
</svg>